<svg width="57" height="56" viewBox="0 0 57 56" fill="none" xmlns="http://www.w3.org/2000/svg">
<path fill-rule="evenodd" clip-rule="evenodd" d="M36.6256 16.5994C33.9295 14.6778 30.6396 13.7738 27.3401 14.0482C24.3025 14.3007 21.4379 15.5368 19.175 17.5575L21.4725 17.2829C22.0209 17.2173 22.5186 17.6087 22.5842 18.1571C22.6497 18.7055 22.2583 19.2032 21.7099 19.2687L19.0699 19.5844L16.4298 19.9C16.1086 19.9384 15.7886 19.819 15.571 19.5795C15.3534 19.34 15.2651 19.01 15.3341 18.6939L16.4677 13.4984C16.5854 12.9588 17.1183 12.6168 17.6579 12.7346C18.1974 12.8523 18.5394 13.3851 18.4217 13.9247L17.9812 15.9437C20.5453 13.7065 23.7645 12.3385 27.1744 12.055C30.9452 11.7415 34.7051 12.7746 37.7864 14.9708C40.8678 17.1669 43.071 20.3841 44.005 24.0509C44.9389 27.7177 44.5431 31.5968 42.8878 34.9994C41.2325 38.402 38.4249 41.1078 34.9635 42.6364C31.5021 44.1649 27.611 44.4173 23.9812 43.3487C20.3514 42.28 17.2178 39.9595 15.1368 36.7992C13.0559 33.639 12.1623 29.8435 12.6148 26.0867C12.6808 25.5384 13.1789 25.1475 13.7272 25.2135C14.2755 25.2795 14.6665 25.7776 14.6004 26.3259C14.2045 29.613 14.9864 32.9341 16.8072 35.6993C18.628 38.4646 21.37 40.495 24.5461 41.4301C27.7221 42.3652 31.1269 42.1443 34.1556 40.8068C37.1843 39.4693 39.6409 37.1017 41.0893 34.1245C42.5377 31.1472 42.884 27.753 42.0668 24.5445C41.2496 21.3361 39.3218 18.5211 36.6256 16.5994Z" fill="white"/>
<path d="M22.6691 32V25.2148H22.5637L20.4895 26.6562V25.0625L22.675 23.5449H24.4387V32H22.6691ZM31.1465 32.2168C29.3359 32.2168 28.1406 31.1387 28.041 29.7266L28.0352 29.6445H29.6406L29.6523 29.6855C29.7754 30.3066 30.3555 30.8047 31.1523 30.8047C32.0605 30.8047 32.6934 30.166 32.6934 29.2578V29.2461C32.6934 28.3438 32.0547 27.7168 31.1582 27.7168C30.7305 27.7168 30.3672 27.8398 30.0859 28.0801C29.9277 28.209 29.7871 28.3672 29.6934 28.5488H28.1758L28.5684 23.5449H33.8535V24.9512H29.9453L29.7344 27.3594H29.8398C30.1797 26.791 30.8359 26.4395 31.6445 26.4395C33.2207 26.4395 34.3574 27.5996 34.3574 29.2109V29.2227C34.3574 31.0039 33.0449 32.2168 31.1465 32.2168Z" fill="white"/>
</svg>
