<svg width="24" height="24" viewBox="0 0 24 24" fill="none" xmlns="http://www.w3.org/2000/svg">
<rect x="2" y="4" width="20" height="16" rx="2" stroke="#8E9391" stroke-width="2"/>
<path d="M3.93699 5.7433C3.25578 5.1302 3.68947 4 4.60596 4H19.394C20.3105 4 20.7442 5.1302 20.063 5.74329L12.669 12.3979C12.2887 12.7402 11.7113 12.7402 11.331 12.3979L3.93699 5.7433Z" stroke="#8E9391" stroke-width="2"/>
<path d="M3.36682 18.3598C2.82405 19.0111 3.2872 20 4.13504 20H19.865C20.7128 20 21.176 19.0111 20.6332 18.3598L15.1275 11.753C14.7789 11.3347 14.1598 11.2722 13.7346 11.6123L12.6247 12.5002C12.2595 12.7924 11.7405 12.7924 11.3753 12.5002L10.2654 11.6123C9.84023 11.2722 9.22107 11.3347 8.87249 11.753L3.36682 18.3598Z" stroke="#8E9391" stroke-width="2"/>
</svg>
