<svg width="57" height="56" viewBox="0 0 57 56" fill="none" xmlns="http://www.w3.org/2000/svg">
<path d="M22.6691 32V25.2148H22.5637L20.4895 26.6562V25.0625L22.675 23.5449H24.4387V32H22.6691ZM31.1465 32.2168C29.3359 32.2168 28.1406 31.1387 28.041 29.7266L28.0352 29.6445H29.6406L29.6523 29.6855C29.7754 30.3066 30.3555 30.8047 31.1523 30.8047C32.0605 30.8047 32.6934 30.166 32.6934 29.2578V29.2461C32.6934 28.3438 32.0547 27.7168 31.1582 27.7168C30.7305 27.7168 30.3672 27.8398 30.0859 28.0801C29.9277 28.209 29.7871 28.3672 29.6934 28.5488H28.1758L28.5684 23.5449H33.8535V24.9512H29.9453L29.7344 27.3594H29.8398C30.1797 26.791 30.8359 26.4395 31.6445 26.4395C33.2207 26.4395 34.3574 27.5996 34.3574 29.2109V29.2227C34.3574 31.0039 33.0449 32.2168 31.1465 32.2168Z" fill="white"/>
<path fill-rule="evenodd" clip-rule="evenodd" d="M27.1632 14.064C30.459 13.7478 33.7601 14.61 36.4804 16.4973C38.9847 18.2347 40.8476 20.7375 41.7969 23.619L39.9445 22.2324C39.5024 21.9014 38.8756 21.9915 38.5447 22.4337C38.2137 22.8758 38.3038 23.5025 38.746 23.8335L40.8745 25.4268L43.003 27.0202C43.2621 27.2141 43.5989 27.2707 43.9071 27.1721C44.2153 27.0735 44.4567 26.8318 44.555 26.5236L46.1711 21.4574C46.3389 20.9312 46.0484 20.3686 45.5223 20.2008C44.9961 20.0329 44.4335 20.3234 44.2657 20.8496L43.6377 22.8182C42.5357 19.5988 40.4318 16.8045 37.6205 14.854C34.5116 12.6971 30.7389 11.7118 26.9723 12.0731C23.2057 12.4344 19.6891 14.1189 17.0468 16.8274C14.4046 19.536 12.8079 23.0933 12.5401 26.8677C12.2723 30.6421 13.3509 34.3892 15.5842 37.4437C17.8176 40.4982 21.0612 42.6623 24.739 43.5517C28.4169 44.4411 32.2909 43.9983 35.6732 42.3019C39.0555 40.6055 41.7271 37.7653 43.2136 34.2856C43.4305 33.7778 43.1947 33.1902 42.6868 32.9732C42.179 32.7562 41.5913 32.9921 41.3744 33.4999C40.0737 36.5446 37.736 39.0298 34.7765 40.5142C31.817 41.9985 28.4273 42.386 25.2091 41.6077C21.991 40.8295 19.1529 38.9359 17.1987 36.2632C15.2445 33.5906 14.3008 30.3118 14.5351 27.0092C14.7694 23.7067 16.1665 20.594 18.4785 18.224C20.7904 15.854 23.8675 14.3801 27.1632 14.064Z" fill="white"/>
</svg>
