<svg width="25" height="24" viewBox="0 0 25 24" fill="none" xmlns="http://www.w3.org/2000/svg">
<path d="M6.5 8C5.39543 8 4.5 8.89543 4.5 10V20C4.5 21.1046 5.39543 22 6.5 22H18.5C19.6046 22 20.5 21.1046 20.5 20V10C20.5 8.89543 19.6046 8 18.5 8H6.5Z" stroke="#565C59" stroke-width="2" stroke-linejoin="round"/>
<path d="M6.5 6V2H18.5V6H6.5Z" stroke="#565C59" stroke-width="2" stroke-linejoin="round"/>
<path d="M7.80299 19.8215C7.97032 20.0412 8.28404 20.0836 8.50371 19.9163L10.8902 18.0984C11.1099 17.9311 11.1523 17.6174 10.985 17.3977V17.3977C10.8177 17.178 10.5039 17.1356 10.2843 17.3029L7.89776 19.1208C7.67809 19.2881 7.63566 19.6019 7.80299 19.8215V19.8215Z" stroke="#565C59" stroke-width="2" stroke-linejoin="round"/>
<path d="M12.5 19.5C12.5 19.7761 12.7239 20 13 20L16 20C16.2761 20 16.5 19.7761 16.5 19.5V19.5C16.5 19.2239 16.2761 19 16 19L13 19C12.7239 19 12.5 19.2239 12.5 19.5V19.5Z" stroke="#565C59" stroke-width="2" stroke-linejoin="round"/>
</svg>
