<svg width="25" height="24" viewBox="0 0 25 24" fill="none" xmlns="http://www.w3.org/2000/svg">
<path d="M12.5 22C15.2614 22 17.7614 20.8807 19.5711 19.0711C21.3807 17.2614 22.5 14.7614 22.5 12C22.5 9.2386 21.3807 6.7386 19.5711 4.92893C17.7614 3.11929 15.2614 2 12.5 2C9.7386 2 7.2386 3.11929 5.42893 4.92893C3.61929 6.7386 2.5 9.2386 2.5 12C2.5 14.7614 3.61929 17.2614 5.42893 19.0711C7.2386 20.8807 9.7386 22 12.5 22Z" stroke="#565C59" stroke-width="2" stroke-linejoin="round"/>
<path d="M12.6233 7C11.7733 7 11.0637 7.29839 10.4958 7.78305C9.92792 8.26771 9.59557 8.66102 9.49994 9.84746H11.2337C11.2715 9.25424 11.4126 9.1172 11.6564 8.89178C11.9002 8.66636 12.203 8.52517 12.5661 8.52517C12.9291 8.52517 13.2249 8.62839 13.4539 8.8639C13.6835 9.09881 13.7981 9.38712 13.7981 9.74186C13.7981 10.0966 13.6877 10.3908 13.4687 10.6311L12.4226 11.6805C12.1168 11.9878 12.0531 12.2346 11.9622 12.4214C11.8712 12.6083 11.9604 12.8925 11.9604 13.2763V14H13.141V13.5064C13.141 13.1232 13.3116 12.8254 13.484 12.6142C13.5501 12.5377 13.6806 12.444 13.7916 12.3336C13.9014 12.2227 14.056 12.0934 14.2136 11.9445C14.3712 11.7962 14.5088 11.6734 14.6044 11.5773C14.6995 11.4818 14.8429 11.3181 15.0247 11.0879C15.3394 10.7041 15.4999 10.2242 15.4999 9.64814C15.4999 8.81288 15.2343 8.16331 14.6995 7.69703C14.1635 7.23254 13.4734 7 12.6233 7Z" fill="#565C59"/>
<path d="M12.4938 15C12.2208 15 11.9875 15.0997 11.7922 15.2974C11.5973 15.4957 11.4999 15.7318 11.4999 16.007C11.4999 16.2815 11.5995 16.516 11.7986 16.7098C11.9977 16.9036 12.2337 17 12.5061 17C12.779 17 13.0129 16.9009 13.2077 16.7031C13.402 16.5049 13.4999 16.2682 13.4999 15.9936C13.4999 15.719 13.3999 15.4845 13.2008 15.2902C13.0027 15.0964 12.7667 15 12.4938 15Z" fill="#565C59"/>
</svg>
