<svg width="78" height="38" viewBox="0 0 78 38" fill="none" xmlns="http://www.w3.org/2000/svg">
<path d="M13.8154 12.6664V19.5756H9.20996V14.9691H4.60547V33.3939H9.20996V28.7875H13.8154V35.6967L11.5127 37.9994H13.8154V38.0004H0V37.9994H2.30273L0 35.6967V12.6664L2.30273 10.3636H11.5127L13.8154 12.6664Z" fill="#F3F4F4"/>
<path d="M29.9336 12.6663V35.6965L27.6309 37.9993H29.9336V38.0002H16.1182V37.9993H18.4209L16.1182 35.6965V12.6663L18.4209 10.3635H27.6309L29.9336 12.6663ZM20.7236 14.97V33.3938H25.3281V14.97H20.7236Z" fill="#F3F4F4"/>
<path d="M61.8818 12.6663V19.5754H57.2764V14.97H52.6719V33.3938H57.2764V28.7874H61.8818V35.6965L59.5791 37.9993H61.8818V38.0002H48.0664V37.9993H50.3691L48.0664 35.6965V12.6663L50.3691 10.3635H59.5791L61.8818 12.6663Z" fill="#F3F4F4"/>
<path d="M68.79 21.8782H73.3945V10.3635H78V38.0002H64.1846V10.3635H68.79V21.8782ZM68.79 26.4846V37.9993H73.3945V26.4846H68.79Z" fill="#F3F4F4"/>
<path d="M46.915 38.0002H42.2617L41.5898 33.3938H36.4111L35.7393 38.0002H31.085L34.8203 12.3723L32.8115 10.3635H42.8857L46.915 38.0002ZM37.082 28.7874H40.918L39 15.6331L37.082 28.7874Z" fill="#F3F4F4"/>
<path d="M35.8342 1.15137H34.6829V5.75781H33.5315V1.15137H32.3801V0H35.8342V1.15137ZM37.8489 2.30273H39.0002V0H40.1516V5.75781H39.0002V3.4541H37.8489V5.75781H36.6975V0H37.8489V2.30273ZM44.7561 1.15137H42.4543V2.30273H44.1809V3.4541H42.4543V4.60645H44.7561V5.75781H41.303V0H44.7561V1.15137Z" fill="#D0856A"/>
</svg>
