<svg width="51" height="50" viewBox="0 0 51 50" fill="none" xmlns="http://www.w3.org/2000/svg">
<rect x="0.5" width="50" height="50" rx="25" fill="black" fill-opacity="0.6"/>
<path fill-rule="evenodd" clip-rule="evenodd" d="M21.8919 16.3255C21.1063 15.878 20.7134 15.6542 20.3914 15.6894C20.1105 15.7201 19.8557 15.8682 19.69 16.0971C19.5 16.3595 19.5 16.8116 19.5 17.7157L19.5 32.2846C19.5 33.1887 19.5 33.6408 19.69 33.9032C19.8557 34.1321 20.1105 34.2802 20.3914 34.3109C20.7134 34.3461 21.1063 34.1223 21.8919 33.6748L34.6806 26.3904C35.4801 25.935 35.8799 25.7073 36.0135 25.409C36.1301 25.1489 36.1301 24.8514 36.0135 24.5913C35.8799 24.293 35.4801 24.0653 34.6806 23.6099L21.8919 16.3255Z" fill="white"/>
</svg>
